<svg height="512pt" viewBox="1 1 511.99998 511.99998" width="512pt" xmlns="http://www.w3.org/2000/svg"><path d="m256 219.714844c-20.007812 0-36.285156 16.277344-36.285156 36.285156 0 20.003906 16.277344 36.28125 36.285156 36.28125s36.285156-16.277344 36.285156-36.28125c0-20.007812-16.277344-36.285156-36.285156-36.285156zm0 0"/><path d="m437.019531 74.980469c-48.351562-48.351563-112.640625-74.980469-181.019531-74.980469s-132.667969 26.628906-181.019531 74.980469c-48.351563 48.351562-74.980469 112.640625-74.980469 181.019531s26.628906 132.667969 74.980469 181.019531c48.351562 48.351563 112.640625 74.980469 181.019531 74.980469s132.667969-26.628906 181.019531-74.980469c48.351563-48.351562 74.980469-112.640625 74.980469-181.019531s-26.628906-132.667969-74.980469-181.019531zm-17.875 201.597656c0 34.976563-28.453125 63.433594-63.429687 63.433594-24.078125 0-45.0625-13.488281-55.804688-33.304688-11.78125 10.21875-27.128906 16.417969-43.910156 16.417969-37.011719 0-67.125-30.113281-67.125-67.125s30.109375-67.128906 67.125-67.128906c13.371094 0 25.832031 3.945312 36.308594 10.714844.265625-8.285157 7.046875-14.925782 15.398437-14.925782 8.515625 0 15.421875 6.902344 15.421875 15.421875v76.496094c0 17.96875 14.617188 32.589844 32.585938 32.589844s32.589844-14.621094 32.589844-32.589844v-20.578125c0-72.953125-59.351563-132.304688-132.304688-132.304688s-132.304688 59.351563-132.304688 132.304688 59.351563 132.304688 132.304688 132.304688c28.007812 0 54.769531-8.640626 77.390625-24.984376 6.902344-4.988281 16.542969-3.4375 21.53125 3.46875 4.988281 6.902344 3.4375 16.542969-3.46875 21.53125-27.910156 20.167969-60.917969 30.828126-95.453125 30.828126-89.960938 0-163.148438-73.1875-163.148438-163.148438s73.1875-163.148438 163.148438-163.148438 163.148438 73.1875 163.148438 163.148438v20.578125zm0 0"/></svg>