<?xml version="1.0" encoding="iso-8859-1"?>
<!-- Generator: Adobe Illustrator 17.1.0, SVG Export Plug-In . SVG Version: 6.00 Build 0)  -->
<!DOCTYPE svg PUBLIC "-//W3C//DTD SVG 1.1//EN" "http://www.w3.org/Graphics/SVG/1.1/DTD/svg11.dtd">
<svg xmlns="http://www.w3.org/2000/svg" xmlns:xlink="http://www.w3.org/1999/xlink" version="1.1" id="Capa_1" x="0px" y="0px" viewBox="0 0 242.667 242.667" style="enable-background:new 0 0 242.667 242.667;" xml:space="preserve" width="512px" height="512px">
<path d="M0,0v242.667h242.667V0H0z M81.468,192.754H52.996V93.362h28.471V192.754z M67.513,82.028  c-9.55,0-17.319-7.204-17.319-16.058s7.77-16.058,17.319-16.058s17.319,7.204,17.319,16.058S77.062,82.028,67.513,82.028z   M192.473,192.754h-29.172v-58.946c0.006-0.12,0.432-9.478-4.874-15.068c-2.641-2.783-6.279-4.194-10.814-4.194  c-11.408,0-17.17,8.214-19.612,13.189v65.019H99.529V93.362H128v8.397c9.32-7.561,19.787-11.55,30.335-11.55  c27.003,0,34.138,21.093,34.138,32.246V192.754z" fill="#272727"/>
<g>
</g>
<g>
</g>
<g>
</g>
<g>
</g>
<g>
</g>
<g>
</g>
<g>
</g>
<g>
</g>
<g>
</g>
<g>
</g>
<g>
</g>
<g>
</g>
<g>
</g>
<g>
</g>
<g>
</g>
</svg>
